<?xml version="1.0" encoding="utf-8" standalone="no"?>
<!DOCTYPE svg PUBLIC "-//W3C//DTD SVG 1.1//EN"
  "http://www.w3.org/Graphics/SVG/1.1/DTD/svg11.dtd">
<!-- Created with matplotlib (https://matplotlib.org/) -->
<svg height="468.758281pt" version="1.1" viewBox="0 0 640.89875 468.758281" width="640.89875pt" xmlns="http://www.w3.org/2000/svg" xmlns:xlink="http://www.w3.org/1999/xlink">
 <defs>
  <style type="text/css">
*{stroke-linecap:butt;stroke-linejoin:round;}
  </style>
 </defs>
 <g id="figure_1">
  <g id="patch_1">
   <path d="M 0 468.758281 
L 640.89875 468.758281 
L 640.89875 0 
L 0 0 
z
" style="fill:#ffffff;"/>
  </g>
  <g id="axes_1">
   <g id="patch_2">
    <path d="M 75.69875 415.717031 
L 633.69875 415.717031 
L 633.69875 27.637031 
L 75.69875 27.637031 
z
" style="fill:#ffffff;"/>
   </g>
   <g id="matplotlib.axis_1">
    <g id="xtick_1">
     <g id="line2d_1">
      <path clip-path="url(#p669cd83674)" d="M 101.062386 415.717031 
L 101.062386 27.637031 
" style="fill:none;stroke:#b0b0b0;stroke-linecap:square;stroke-width:0.8;"/>
     </g>
     <g id="line2d_2">
      <defs>
       <path d="M 0 0 
L 0 3.5 
" id="md137b15b26" style="stroke:#000000;stroke-width:0.8;"/>
      </defs>
      <g>
       <use style="stroke:#000000;stroke-width:0.8;" x="101.062386" xlink:href="#md137b15b26" y="415.717031"/>
      </g>
     </g>
     <g id="text_1">
      <!-- 0 -->
      <defs>
       <path d="M 31.78125 66.40625 
Q 24.171875 66.40625 20.328125 58.90625 
Q 16.5 51.421875 16.5 36.375 
Q 16.5 21.390625 20.328125 13.890625 
Q 24.171875 6.390625 31.78125 6.390625 
Q 39.453125 6.390625 43.28125 13.890625 
Q 47.125 21.390625 47.125 36.375 
Q 47.125 51.421875 43.28125 58.90625 
Q 39.453125 66.40625 31.78125 66.40625 
z
M 31.78125 74.21875 
Q 44.046875 74.21875 50.515625 64.515625 
Q 56.984375 54.828125 56.984375 36.375 
Q 56.984375 17.96875 50.515625 8.265625 
Q 44.046875 -1.421875 31.78125 -1.421875 
Q 19.53125 -1.421875 13.0625 8.265625 
Q 6.59375 17.96875 6.59375 36.375 
Q 6.59375 54.828125 13.0625 64.515625 
Q 19.53125 74.21875 31.78125 74.21875 
z
" id="DejaVuSans-48"/>
      </defs>
      <g transform="translate(95.336136 436.394219)scale(0.18 -0.18)">
       <use xlink:href="#DejaVuSans-48"/>
      </g>
     </g>
    </g>
    <g id="xtick_2">
     <g id="line2d_3">
      <path clip-path="url(#p669cd83674)" d="M 202.516932 415.717031 
L 202.516932 27.637031 
" style="fill:none;stroke:#b0b0b0;stroke-linecap:square;stroke-width:0.8;"/>
     </g>
     <g id="line2d_4">
      <g>
       <use style="stroke:#000000;stroke-width:0.8;" x="202.516932" xlink:href="#md137b15b26" y="415.717031"/>
      </g>
     </g>
     <g id="text_2">
      <!-- 100 -->
      <defs>
       <path d="M 12.40625 8.296875 
L 28.515625 8.296875 
L 28.515625 63.921875 
L 10.984375 60.40625 
L 10.984375 69.390625 
L 28.421875 72.90625 
L 38.28125 72.90625 
L 38.28125 8.296875 
L 54.390625 8.296875 
L 54.390625 0 
L 12.40625 0 
z
" id="DejaVuSans-49"/>
      </defs>
      <g transform="translate(185.338182 436.394219)scale(0.18 -0.18)">
       <use xlink:href="#DejaVuSans-49"/>
       <use x="63.623047" xlink:href="#DejaVuSans-48"/>
       <use x="127.246094" xlink:href="#DejaVuSans-48"/>
      </g>
     </g>
    </g>
    <g id="xtick_3">
     <g id="line2d_5">
      <path clip-path="url(#p669cd83674)" d="M 303.971477 415.717031 
L 303.971477 27.637031 
" style="fill:none;stroke:#b0b0b0;stroke-linecap:square;stroke-width:0.8;"/>
     </g>
     <g id="line2d_6">
      <g>
       <use style="stroke:#000000;stroke-width:0.8;" x="303.971477" xlink:href="#md137b15b26" y="415.717031"/>
      </g>
     </g>
     <g id="text_3">
      <!-- 200 -->
      <defs>
       <path d="M 19.1875 8.296875 
L 53.609375 8.296875 
L 53.609375 0 
L 7.328125 0 
L 7.328125 8.296875 
Q 12.9375 14.109375 22.625 23.890625 
Q 32.328125 33.6875 34.8125 36.53125 
Q 39.546875 41.84375 41.421875 45.53125 
Q 43.3125 49.21875 43.3125 52.78125 
Q 43.3125 58.59375 39.234375 62.25 
Q 35.15625 65.921875 28.609375 65.921875 
Q 23.96875 65.921875 18.8125 64.3125 
Q 13.671875 62.703125 7.8125 59.421875 
L 7.8125 69.390625 
Q 13.765625 71.78125 18.9375 73 
Q 24.125 74.21875 28.421875 74.21875 
Q 39.75 74.21875 46.484375 68.546875 
Q 53.21875 62.890625 53.21875 53.421875 
Q 53.21875 48.921875 51.53125 44.890625 
Q 49.859375 40.875 45.40625 35.40625 
Q 44.1875 33.984375 37.640625 27.21875 
Q 31.109375 20.453125 19.1875 8.296875 
z
" id="DejaVuSans-50"/>
      </defs>
      <g transform="translate(286.792727 436.394219)scale(0.18 -0.18)">
       <use xlink:href="#DejaVuSans-50"/>
       <use x="63.623047" xlink:href="#DejaVuSans-48"/>
       <use x="127.246094" xlink:href="#DejaVuSans-48"/>
      </g>
     </g>
    </g>
    <g id="xtick_4">
     <g id="line2d_7">
      <path clip-path="url(#p669cd83674)" d="M 405.426023 415.717031 
L 405.426023 27.637031 
" style="fill:none;stroke:#b0b0b0;stroke-linecap:square;stroke-width:0.8;"/>
     </g>
     <g id="line2d_8">
      <g>
       <use style="stroke:#000000;stroke-width:0.8;" x="405.426023" xlink:href="#md137b15b26" y="415.717031"/>
      </g>
     </g>
     <g id="text_4">
      <!-- 300 -->
      <defs>
       <path d="M 40.578125 39.3125 
Q 47.65625 37.796875 51.625 33 
Q 55.609375 28.21875 55.609375 21.1875 
Q 55.609375 10.40625 48.1875 4.484375 
Q 40.765625 -1.421875 27.09375 -1.421875 
Q 22.515625 -1.421875 17.65625 -0.515625 
Q 12.796875 0.390625 7.625 2.203125 
L 7.625 11.71875 
Q 11.71875 9.328125 16.59375 8.109375 
Q 21.484375 6.890625 26.8125 6.890625 
Q 36.078125 6.890625 40.9375 10.546875 
Q 45.796875 14.203125 45.796875 21.1875 
Q 45.796875 27.640625 41.28125 31.265625 
Q 36.765625 34.90625 28.71875 34.90625 
L 20.21875 34.90625 
L 20.21875 43.015625 
L 29.109375 43.015625 
Q 36.375 43.015625 40.234375 45.921875 
Q 44.09375 48.828125 44.09375 54.296875 
Q 44.09375 59.90625 40.109375 62.90625 
Q 36.140625 65.921875 28.71875 65.921875 
Q 24.65625 65.921875 20.015625 65.03125 
Q 15.375 64.15625 9.8125 62.3125 
L 9.8125 71.09375 
Q 15.4375 72.65625 20.34375 73.4375 
Q 25.25 74.21875 29.59375 74.21875 
Q 40.828125 74.21875 47.359375 69.109375 
Q 53.90625 64.015625 53.90625 55.328125 
Q 53.90625 49.265625 50.4375 45.09375 
Q 46.96875 40.921875 40.578125 39.3125 
z
" id="DejaVuSans-51"/>
      </defs>
      <g transform="translate(388.247273 436.394219)scale(0.18 -0.18)">
       <use xlink:href="#DejaVuSans-51"/>
       <use x="63.623047" xlink:href="#DejaVuSans-48"/>
       <use x="127.246094" xlink:href="#DejaVuSans-48"/>
      </g>
     </g>
    </g>
    <g id="xtick_5">
     <g id="line2d_9">
      <path clip-path="url(#p669cd83674)" d="M 506.880568 415.717031 
L 506.880568 27.637031 
" style="fill:none;stroke:#b0b0b0;stroke-linecap:square;stroke-width:0.8;"/>
     </g>
     <g id="line2d_10">
      <g>
       <use style="stroke:#000000;stroke-width:0.8;" x="506.880568" xlink:href="#md137b15b26" y="415.717031"/>
      </g>
     </g>
     <g id="text_5">
      <!-- 400 -->
      <defs>
       <path d="M 37.796875 64.3125 
L 12.890625 25.390625 
L 37.796875 25.390625 
z
M 35.203125 72.90625 
L 47.609375 72.90625 
L 47.609375 25.390625 
L 58.015625 25.390625 
L 58.015625 17.1875 
L 47.609375 17.1875 
L 47.609375 0 
L 37.796875 0 
L 37.796875 17.1875 
L 4.890625 17.1875 
L 4.890625 26.703125 
z
" id="DejaVuSans-52"/>
      </defs>
      <g transform="translate(489.701818 436.394219)scale(0.18 -0.18)">
       <use xlink:href="#DejaVuSans-52"/>
       <use x="63.623047" xlink:href="#DejaVuSans-48"/>
       <use x="127.246094" xlink:href="#DejaVuSans-48"/>
      </g>
     </g>
    </g>
    <g id="xtick_6">
     <g id="line2d_11">
      <path clip-path="url(#p669cd83674)" d="M 608.335114 415.717031 
L 608.335114 27.637031 
" style="fill:none;stroke:#b0b0b0;stroke-linecap:square;stroke-width:0.8;"/>
     </g>
     <g id="line2d_12">
      <g>
       <use style="stroke:#000000;stroke-width:0.8;" x="608.335114" xlink:href="#md137b15b26" y="415.717031"/>
      </g>
     </g>
     <g id="text_6">
      <!-- 500 -->
      <defs>
       <path d="M 10.796875 72.90625 
L 49.515625 72.90625 
L 49.515625 64.59375 
L 19.828125 64.59375 
L 19.828125 46.734375 
Q 21.96875 47.46875 24.109375 47.828125 
Q 26.265625 48.1875 28.421875 48.1875 
Q 40.625 48.1875 47.75 41.5 
Q 54.890625 34.8125 54.890625 23.390625 
Q 54.890625 11.625 47.5625 5.09375 
Q 40.234375 -1.421875 26.90625 -1.421875 
Q 22.3125 -1.421875 17.546875 -0.640625 
Q 12.796875 0.140625 7.71875 1.703125 
L 7.71875 11.625 
Q 12.109375 9.234375 16.796875 8.0625 
Q 21.484375 6.890625 26.703125 6.890625 
Q 35.15625 6.890625 40.078125 11.328125 
Q 45.015625 15.765625 45.015625 23.390625 
Q 45.015625 31 40.078125 35.4375 
Q 35.15625 39.890625 26.703125 39.890625 
Q 22.75 39.890625 18.8125 39.015625 
Q 14.890625 38.140625 10.796875 36.28125 
z
" id="DejaVuSans-53"/>
      </defs>
      <g transform="translate(591.156364 436.394219)scale(0.18 -0.18)">
       <use xlink:href="#DejaVuSans-53"/>
       <use x="63.623047" xlink:href="#DejaVuSans-48"/>
       <use x="127.246094" xlink:href="#DejaVuSans-48"/>
      </g>
     </g>
    </g>
    <g id="text_7">
     <!-- time -->
     <defs>
      <path d="M 18.3125 70.21875 
L 18.3125 54.6875 
L 36.8125 54.6875 
L 36.8125 47.703125 
L 18.3125 47.703125 
L 18.3125 18.015625 
Q 18.3125 11.328125 20.140625 9.421875 
Q 21.96875 7.515625 27.59375 7.515625 
L 36.8125 7.515625 
L 36.8125 0 
L 27.59375 0 
Q 17.1875 0 13.234375 3.875 
Q 9.28125 7.765625 9.28125 18.015625 
L 9.28125 47.703125 
L 2.6875 47.703125 
L 2.6875 54.6875 
L 9.28125 54.6875 
L 9.28125 70.21875 
z
" id="DejaVuSans-116"/>
      <path d="M 9.421875 54.6875 
L 18.40625 54.6875 
L 18.40625 0 
L 9.421875 0 
z
M 9.421875 75.984375 
L 18.40625 75.984375 
L 18.40625 64.59375 
L 9.421875 64.59375 
z
" id="DejaVuSans-105"/>
      <path d="M 52 44.1875 
Q 55.375 50.25 60.0625 53.125 
Q 64.75 56 71.09375 56 
Q 79.640625 56 84.28125 50.015625 
Q 88.921875 44.046875 88.921875 33.015625 
L 88.921875 0 
L 79.890625 0 
L 79.890625 32.71875 
Q 79.890625 40.578125 77.09375 44.375 
Q 74.3125 48.1875 68.609375 48.1875 
Q 61.625 48.1875 57.5625 43.546875 
Q 53.515625 38.921875 53.515625 30.90625 
L 53.515625 0 
L 44.484375 0 
L 44.484375 32.71875 
Q 44.484375 40.625 41.703125 44.40625 
Q 38.921875 48.1875 33.109375 48.1875 
Q 26.21875 48.1875 22.15625 43.53125 
Q 18.109375 38.875 18.109375 30.90625 
L 18.109375 0 
L 9.078125 0 
L 9.078125 54.6875 
L 18.109375 54.6875 
L 18.109375 46.1875 
Q 21.1875 51.21875 25.484375 53.609375 
Q 29.78125 56 35.6875 56 
Q 41.65625 56 45.828125 52.96875 
Q 50 49.953125 52 44.1875 
z
" id="DejaVuSans-109"/>
      <path d="M 56.203125 29.59375 
L 56.203125 25.203125 
L 14.890625 25.203125 
Q 15.484375 15.921875 20.484375 11.0625 
Q 25.484375 6.203125 34.421875 6.203125 
Q 39.59375 6.203125 44.453125 7.46875 
Q 49.3125 8.734375 54.109375 11.28125 
L 54.109375 2.78125 
Q 49.265625 0.734375 44.1875 -0.34375 
Q 39.109375 -1.421875 33.890625 -1.421875 
Q 20.796875 -1.421875 13.15625 6.1875 
Q 5.515625 13.8125 5.515625 26.8125 
Q 5.515625 40.234375 12.765625 48.109375 
Q 20.015625 56 32.328125 56 
Q 43.359375 56 49.78125 48.890625 
Q 56.203125 41.796875 56.203125 29.59375 
z
M 47.21875 32.234375 
Q 47.125 39.59375 43.09375 43.984375 
Q 39.0625 48.390625 32.421875 48.390625 
Q 24.90625 48.390625 20.390625 44.140625 
Q 15.875 39.890625 15.1875 32.171875 
z
" id="DejaVuSans-101"/>
     </defs>
     <g transform="translate(334.365781 457.814844)scale(0.18 -0.18)">
      <use xlink:href="#DejaVuSans-116"/>
      <use x="39.208984" xlink:href="#DejaVuSans-105"/>
      <use x="66.992188" xlink:href="#DejaVuSans-109"/>
      <use x="164.404297" xlink:href="#DejaVuSans-101"/>
     </g>
    </g>
   </g>
   <g id="matplotlib.axis_2">
    <g id="ytick_1">
     <g id="line2d_13">
      <path clip-path="url(#p669cd83674)" d="M 75.69875 377.778126 
L 633.69875 377.778126 
" style="fill:none;stroke:#b0b0b0;stroke-linecap:square;stroke-width:0.8;"/>
     </g>
     <g id="line2d_14">
      <defs>
       <path d="M 0 0 
L -3.5 0 
" id="m2e6ff96e71" style="stroke:#000000;stroke-width:0.8;"/>
      </defs>
      <g>
       <use style="stroke:#000000;stroke-width:0.8;" x="75.69875" xlink:href="#m2e6ff96e71" y="377.778126"/>
      </g>
     </g>
     <g id="text_8">
      <!-- 2.5 -->
      <defs>
       <path d="M 10.6875 12.40625 
L 21 12.40625 
L 21 0 
L 10.6875 0 
z
" id="DejaVuSans-46"/>
      </defs>
      <g transform="translate(40.073125 384.61672)scale(0.18 -0.18)">
       <use xlink:href="#DejaVuSans-50"/>
       <use x="63.623047" xlink:href="#DejaVuSans-46"/>
       <use x="95.410156" xlink:href="#DejaVuSans-53"/>
      </g>
     </g>
    </g>
    <g id="ytick_2">
     <g id="line2d_15">
      <path clip-path="url(#p669cd83674)" d="M 75.69875 329.717 
L 633.69875 329.717 
" style="fill:none;stroke:#b0b0b0;stroke-linecap:square;stroke-width:0.8;"/>
     </g>
     <g id="line2d_16">
      <g>
       <use style="stroke:#000000;stroke-width:0.8;" x="75.69875" xlink:href="#m2e6ff96e71" y="329.717"/>
      </g>
     </g>
     <g id="text_9">
      <!-- 5.0 -->
      <g transform="translate(40.073125 336.555594)scale(0.18 -0.18)">
       <use xlink:href="#DejaVuSans-53"/>
       <use x="63.623047" xlink:href="#DejaVuSans-46"/>
       <use x="95.410156" xlink:href="#DejaVuSans-48"/>
      </g>
     </g>
    </g>
    <g id="ytick_3">
     <g id="line2d_17">
      <path clip-path="url(#p669cd83674)" d="M 75.69875 281.655875 
L 633.69875 281.655875 
" style="fill:none;stroke:#b0b0b0;stroke-linecap:square;stroke-width:0.8;"/>
     </g>
     <g id="line2d_18">
      <g>
       <use style="stroke:#000000;stroke-width:0.8;" x="75.69875" xlink:href="#m2e6ff96e71" y="281.655875"/>
      </g>
     </g>
     <g id="text_10">
      <!-- 7.5 -->
      <defs>
       <path d="M 8.203125 72.90625 
L 55.078125 72.90625 
L 55.078125 68.703125 
L 28.609375 0 
L 18.3125 0 
L 43.21875 64.59375 
L 8.203125 64.59375 
z
" id="DejaVuSans-55"/>
      </defs>
      <g transform="translate(40.073125 288.494468)scale(0.18 -0.18)">
       <use xlink:href="#DejaVuSans-55"/>
       <use x="63.623047" xlink:href="#DejaVuSans-46"/>
       <use x="95.410156" xlink:href="#DejaVuSans-53"/>
      </g>
     </g>
    </g>
    <g id="ytick_4">
     <g id="line2d_19">
      <path clip-path="url(#p669cd83674)" d="M 75.69875 233.594749 
L 633.69875 233.594749 
" style="fill:none;stroke:#b0b0b0;stroke-linecap:square;stroke-width:0.8;"/>
     </g>
     <g id="line2d_20">
      <g>
       <use style="stroke:#000000;stroke-width:0.8;" x="75.69875" xlink:href="#m2e6ff96e71" y="233.594749"/>
      </g>
     </g>
     <g id="text_11">
      <!-- 10.0 -->
      <g transform="translate(28.620625 240.433342)scale(0.18 -0.18)">
       <use xlink:href="#DejaVuSans-49"/>
       <use x="63.623047" xlink:href="#DejaVuSans-48"/>
       <use x="127.246094" xlink:href="#DejaVuSans-46"/>
       <use x="159.033203" xlink:href="#DejaVuSans-48"/>
      </g>
     </g>
    </g>
    <g id="ytick_5">
     <g id="line2d_21">
      <path clip-path="url(#p669cd83674)" d="M 75.69875 185.533623 
L 633.69875 185.533623 
" style="fill:none;stroke:#b0b0b0;stroke-linecap:square;stroke-width:0.8;"/>
     </g>
     <g id="line2d_22">
      <g>
       <use style="stroke:#000000;stroke-width:0.8;" x="75.69875" xlink:href="#m2e6ff96e71" y="185.533623"/>
      </g>
     </g>
     <g id="text_12">
      <!-- 12.5 -->
      <g transform="translate(28.620625 192.372216)scale(0.18 -0.18)">
       <use xlink:href="#DejaVuSans-49"/>
       <use x="63.623047" xlink:href="#DejaVuSans-50"/>
       <use x="127.246094" xlink:href="#DejaVuSans-46"/>
       <use x="159.033203" xlink:href="#DejaVuSans-53"/>
      </g>
     </g>
    </g>
    <g id="ytick_6">
     <g id="line2d_23">
      <path clip-path="url(#p669cd83674)" d="M 75.69875 137.472497 
L 633.69875 137.472497 
" style="fill:none;stroke:#b0b0b0;stroke-linecap:square;stroke-width:0.8;"/>
     </g>
     <g id="line2d_24">
      <g>
       <use style="stroke:#000000;stroke-width:0.8;" x="75.69875" xlink:href="#m2e6ff96e71" y="137.472497"/>
      </g>
     </g>
     <g id="text_13">
      <!-- 15.0 -->
      <g transform="translate(28.620625 144.311091)scale(0.18 -0.18)">
       <use xlink:href="#DejaVuSans-49"/>
       <use x="63.623047" xlink:href="#DejaVuSans-53"/>
       <use x="127.246094" xlink:href="#DejaVuSans-46"/>
       <use x="159.033203" xlink:href="#DejaVuSans-48"/>
      </g>
     </g>
    </g>
    <g id="ytick_7">
     <g id="line2d_25">
      <path clip-path="url(#p669cd83674)" d="M 75.69875 89.411371 
L 633.69875 89.411371 
" style="fill:none;stroke:#b0b0b0;stroke-linecap:square;stroke-width:0.8;"/>
     </g>
     <g id="line2d_26">
      <g>
       <use style="stroke:#000000;stroke-width:0.8;" x="75.69875" xlink:href="#m2e6ff96e71" y="89.411371"/>
      </g>
     </g>
     <g id="text_14">
      <!-- 17.5 -->
      <g transform="translate(28.620625 96.249965)scale(0.18 -0.18)">
       <use xlink:href="#DejaVuSans-49"/>
       <use x="63.623047" xlink:href="#DejaVuSans-55"/>
       <use x="127.246094" xlink:href="#DejaVuSans-46"/>
       <use x="159.033203" xlink:href="#DejaVuSans-53"/>
      </g>
     </g>
    </g>
    <g id="ytick_8">
     <g id="line2d_27">
      <path clip-path="url(#p669cd83674)" d="M 75.69875 41.350245 
L 633.69875 41.350245 
" style="fill:none;stroke:#b0b0b0;stroke-linecap:square;stroke-width:0.8;"/>
     </g>
     <g id="line2d_28">
      <g>
       <use style="stroke:#000000;stroke-width:0.8;" x="75.69875" xlink:href="#m2e6ff96e71" y="41.350245"/>
      </g>
     </g>
     <g id="text_15">
      <!-- 20.0 -->
      <g transform="translate(28.620625 48.188839)scale(0.18 -0.18)">
       <use xlink:href="#DejaVuSans-50"/>
       <use x="63.623047" xlink:href="#DejaVuSans-48"/>
       <use x="127.246094" xlink:href="#DejaVuSans-46"/>
       <use x="159.033203" xlink:href="#DejaVuSans-48"/>
      </g>
     </g>
    </g>
    <g id="text_16">
     <!-- concentration -->
     <defs>
      <path d="M 48.78125 52.59375 
L 48.78125 44.1875 
Q 44.96875 46.296875 41.140625 47.34375 
Q 37.3125 48.390625 33.40625 48.390625 
Q 24.65625 48.390625 19.8125 42.84375 
Q 14.984375 37.3125 14.984375 27.296875 
Q 14.984375 17.28125 19.8125 11.734375 
Q 24.65625 6.203125 33.40625 6.203125 
Q 37.3125 6.203125 41.140625 7.25 
Q 44.96875 8.296875 48.78125 10.40625 
L 48.78125 2.09375 
Q 45.015625 0.34375 40.984375 -0.53125 
Q 36.96875 -1.421875 32.421875 -1.421875 
Q 20.0625 -1.421875 12.78125 6.34375 
Q 5.515625 14.109375 5.515625 27.296875 
Q 5.515625 40.671875 12.859375 48.328125 
Q 20.21875 56 33.015625 56 
Q 37.15625 56 41.109375 55.140625 
Q 45.0625 54.296875 48.78125 52.59375 
z
" id="DejaVuSans-99"/>
      <path d="M 30.609375 48.390625 
Q 23.390625 48.390625 19.1875 42.75 
Q 14.984375 37.109375 14.984375 27.296875 
Q 14.984375 17.484375 19.15625 11.84375 
Q 23.34375 6.203125 30.609375 6.203125 
Q 37.796875 6.203125 41.984375 11.859375 
Q 46.1875 17.53125 46.1875 27.296875 
Q 46.1875 37.015625 41.984375 42.703125 
Q 37.796875 48.390625 30.609375 48.390625 
z
M 30.609375 56 
Q 42.328125 56 49.015625 48.375 
Q 55.71875 40.765625 55.71875 27.296875 
Q 55.71875 13.875 49.015625 6.21875 
Q 42.328125 -1.421875 30.609375 -1.421875 
Q 18.84375 -1.421875 12.171875 6.21875 
Q 5.515625 13.875 5.515625 27.296875 
Q 5.515625 40.765625 12.171875 48.375 
Q 18.84375 56 30.609375 56 
z
" id="DejaVuSans-111"/>
      <path d="M 54.890625 33.015625 
L 54.890625 0 
L 45.90625 0 
L 45.90625 32.71875 
Q 45.90625 40.484375 42.875 44.328125 
Q 39.84375 48.1875 33.796875 48.1875 
Q 26.515625 48.1875 22.3125 43.546875 
Q 18.109375 38.921875 18.109375 30.90625 
L 18.109375 0 
L 9.078125 0 
L 9.078125 54.6875 
L 18.109375 54.6875 
L 18.109375 46.1875 
Q 21.34375 51.125 25.703125 53.5625 
Q 30.078125 56 35.796875 56 
Q 45.21875 56 50.046875 50.171875 
Q 54.890625 44.34375 54.890625 33.015625 
z
" id="DejaVuSans-110"/>
      <path d="M 41.109375 46.296875 
Q 39.59375 47.171875 37.8125 47.578125 
Q 36.03125 48 33.890625 48 
Q 26.265625 48 22.1875 43.046875 
Q 18.109375 38.09375 18.109375 28.8125 
L 18.109375 0 
L 9.078125 0 
L 9.078125 54.6875 
L 18.109375 54.6875 
L 18.109375 46.1875 
Q 20.953125 51.171875 25.484375 53.578125 
Q 30.03125 56 36.53125 56 
Q 37.453125 56 38.578125 55.875 
Q 39.703125 55.765625 41.0625 55.515625 
z
" id="DejaVuSans-114"/>
      <path d="M 34.28125 27.484375 
Q 23.390625 27.484375 19.1875 25 
Q 14.984375 22.515625 14.984375 16.5 
Q 14.984375 11.71875 18.140625 8.90625 
Q 21.296875 6.109375 26.703125 6.109375 
Q 34.1875 6.109375 38.703125 11.40625 
Q 43.21875 16.703125 43.21875 25.484375 
L 43.21875 27.484375 
z
M 52.203125 31.203125 
L 52.203125 0 
L 43.21875 0 
L 43.21875 8.296875 
Q 40.140625 3.328125 35.546875 0.953125 
Q 30.953125 -1.421875 24.3125 -1.421875 
Q 15.921875 -1.421875 10.953125 3.296875 
Q 6 8.015625 6 15.921875 
Q 6 25.140625 12.171875 29.828125 
Q 18.359375 34.515625 30.609375 34.515625 
L 43.21875 34.515625 
L 43.21875 35.40625 
Q 43.21875 41.609375 39.140625 45 
Q 35.0625 48.390625 27.6875 48.390625 
Q 23 48.390625 18.546875 47.265625 
Q 14.109375 46.140625 10.015625 43.890625 
L 10.015625 52.203125 
Q 14.9375 54.109375 19.578125 55.046875 
Q 24.21875 56 28.609375 56 
Q 40.484375 56 46.34375 49.84375 
Q 52.203125 43.703125 52.203125 31.203125 
z
" id="DejaVuSans-97"/>
     </defs>
     <g transform="translate(20.877188 284.009063)rotate(-90)scale(0.18 -0.18)">
      <use xlink:href="#DejaVuSans-99"/>
      <use x="54.980469" xlink:href="#DejaVuSans-111"/>
      <use x="116.162109" xlink:href="#DejaVuSans-110"/>
      <use x="179.541016" xlink:href="#DejaVuSans-99"/>
      <use x="234.521484" xlink:href="#DejaVuSans-101"/>
      <use x="296.044922" xlink:href="#DejaVuSans-110"/>
      <use x="359.423828" xlink:href="#DejaVuSans-116"/>
      <use x="398.632812" xlink:href="#DejaVuSans-114"/>
      <use x="439.746094" xlink:href="#DejaVuSans-97"/>
      <use x="501.025391" xlink:href="#DejaVuSans-116"/>
      <use x="540.234375" xlink:href="#DejaVuSans-105"/>
      <use x="568.017578" xlink:href="#DejaVuSans-111"/>
      <use x="629.199219" xlink:href="#DejaVuSans-110"/>
     </g>
    </g>
   </g>
   <g id="line2d_29">
    <path clip-path="url(#p669cd83674)" d="M 101.062386 329.717 
L 101.15471 331.374148 
L 101.205437 330.956209 
L 101.324139 327.236277 
L 101.576761 310.912797 
L 102.11447 258.931613 
L 103.503383 123.093569 
L 104.147629 82.054943 
L 104.691426 60.069861 
L 105.139855 49.768632 
L 105.487844 45.99468 
L 105.722204 45.277608 
L 105.814527 45.372 
L 105.980913 46.026016 
L 106.236578 48.118405 
L 106.605873 53.220766 
L 107.126335 63.873419 
L 107.871011 84.145025 
L 109.161523 126.373645 
L 111.841952 214.495834 
L 113.248112 253.025477 
L 114.567031 283.234779 
L 115.84333 307.300715 
L 117.040493 325.821742 
L 118.214322 340.719538 
L 119.443961 353.432667 
L 120.615761 363.275585 
L 121.754081 371.054759 
L 123.000958 377.933075 
L 124.151463 383.043319 
L 125.287753 387.109675 
L 126.368244 390.215577 
L 127.330033 392.452342 
L 128.424728 394.477445 
L 129.702051 396.21226 
L 131.241116 397.517407 
L 132.222182 397.947458 
L 133.43152 398.063574 
L 134.037214 397.952841 
L 135.320614 397.347848 
L 136.585752 396.249555 
L 137.800163 394.700833 
L 138.967905 392.728981 
L 140.092031 390.360914 
L 141.181653 387.607396 
L 142.82826 382.59289 
L 144.541838 376.353787 
L 147.190816 365.357017 
L 149.496888 355.803426 
L 151.274371 349.50242 
L 152.315295 346.523976 
L 153.390713 344.170134 
L 154.175971 342.920161 
L 154.971385 342.049485 
L 155.532429 341.670764 
L 156.082313 341.485632 
L 156.667705 341.487747 
L 157.342378 341.728437 
L 158.138796 342.308823 
L 159.072178 343.345982 
L 160.203406 345.031005 
L 161.629857 347.683211 
L 162.969057 350.458837 
L 165.155413 355.272831 
L 167.751635 360.900405 
L 169.688412 364.680508 
L 171.159503 367.230247 
L 173.809496 371.045724 
L 176.194702 373.589311 
L 177.354328 374.534962 
L 178.654975 375.381414 
L 180.061145 376.053116 
L 181.606298 376.519886 
L 183.351316 376.737507 
L 185.520424 376.626582 
L 188.598555 375.930272 
L 194.490031 373.816352 
L 195.259066 373.557591 
L 196.820452 373.084669 
L 201.755211 372.262632 
L 204.581735 372.373557 
L 209.439389 373.407063 
L 212.011271 374.262936 
L 212.690002 374.504587 
L 218.996427 376.775764 
L 219.746176 377.030872 
L 221.811801 377.694884 
L 222.884175 378.011127 
L 224.016408 378.321409 
L 226.238273 378.855465 
L 226.943382 379.003877 
L 231.441887 379.74325 
L 232.341788 379.854175 
L 233.747948 380.007586 
L 234.920763 380.118511 
L 235.992133 380.208481 
L 237.629609 380.319406 
L 238.491973 380.369775 
L 240.379028 380.4807 
L 241.251547 380.53299 
L 243.056423 380.643915 
L 243.956325 380.701396 
L 245.623223 380.812321 
L 246.569804 380.878646 
L 248.076404 380.989571 
L 249.091964 381.068968 
L 250.435222 381.179893 
L 251.548189 381.277745 
L 252.737236 381.38867 
L 253.995273 381.514014 
L 255.043298 381.624939 
L 256.546865 381.796805 
L 257.484305 381.907731 
L 259.131926 382.106896 
L 260.036901 382.217821 
L 261.767726 382.43275 
L 262.657482 382.543675 
L 264.412646 382.763219 
L 265.303416 382.874144 
L 267.019023 383.086189 
L 267.92907 383.197114 
L 269.553358 383.391858 
L 270.500943 383.502783 
L 272.001466 383.674073 
L 273.00688 383.784998 
L 274.373473 383.930912 
L 275.425557 384.041837 
L 276.718098 384.173717 
L 277.846272 384.284642 
L 279.045465 384.398835 
L 280.25176 384.50976 
L 281.379944 384.610496 
L 282.66233 384.721421 
L 283.735719 384.811776 
L 285.092166 384.922701 
L 286.123959 385.005174 
L 287.548391 385.116099 
L 288.547718 385.19242 
L 290.028954 385.303345 
L 291.005962 385.375437 
L 292.531848 385.486362 
L 293.493637 385.55557 
L 295.035746 385.666495 
L 295.999565 385.736088 
L 297.537626 385.847013 
L 298.503473 385.91699 
L 300.039495 386.027915 
L 301.005342 386.097892 
L 302.542389 386.208817 
L 303.507221 386.278602 
L 305.04933 386.389527 
L 306.011119 386.458735 
L 307.561355 386.56966 
L 308.519086 386.638099 
L 310.081486 386.749024 
L 311.034144 386.816502 
L 312.613802 386.927427 
L 313.559358 386.993559 
L 315.159296 387.104484 
L 316.096736 387.169078 
L 317.722048 387.280003 
L 318.650357 387.342867 
L 320.320299 387.453792 
L 321.229332 387.513004 
L 322.958127 387.623929 
L 323.854985 387.680833 
L 325.634498 387.791758 
L 326.519182 387.846356 
L 328.348417 387.957281 
L 329.220927 388.009571 
L 331.101894 388.120496 
L 331.964268 388.170864 
L 333.897991 388.281789 
L 334.750209 388.330235 
L 336.736689 388.44116 
L 337.578772 388.487683 
L 339.618009 388.598608 
L 340.45095 388.643401 
L 342.542953 388.754326 
L 343.367779 388.797581 
L 345.513542 388.908506 
L 346.331266 388.950416 
L 348.529796 389.061341 
L 349.340418 389.101904 
L 351.59068 389.212829 
L 352.39421 389.252047 
L 354.692155 389.362972 
L 355.490603 389.401229 
L 357.837257 389.512154 
L 358.630631 389.54945 
L 361.018871 389.660375 
L 361.807173 389.696709 
L 364.252238 389.807634 
L 365.034452 389.842815 
L 367.541404 389.95374 
L 368.317531 389.987767 
L 370.891433 390.098692 
L 371.661473 390.131566 
L 374.30336 390.242491 
L 375.067312 390.274211 
L 377.781232 390.385136 
L 378.540112 390.415896 
L 381.332141 390.526821 
L 382.084933 390.556426 
L 384.955093 390.667351 
L 385.702813 390.695996 
L 388.659208 390.806921 
L 389.400841 390.834412 
L 392.443463 390.945337 
L 393.180033 390.971867 
L 396.317008 391.082792 
L 397.048495 391.10836 
L 400.284905 391.219285 
L 401.011319 391.243893 
L 404.351213 391.354818 
L 405.072555 391.378464 
L 408.521005 391.489389 
L 409.237274 391.512074 
L 412.800358 391.622999 
L 413.512579 391.644915 
L 417.200452 391.75584 
L 417.90759 391.776794 
L 421.716204 391.887719 
L 422.420298 391.908097 
L 426.353701 392.019022 
L 427.053737 392.038631 
L 431.12106 392.149556 
L 431.817039 392.168396 
L 436.027412 392.279322 
L 436.719332 392.297392 
L 441.081888 392.408318 
L 441.76975 392.42562 
L 446.296662 392.536545 
L 446.980465 392.553078 
L 451.684923 392.664003 
L 452.364668 392.679767 
L 457.261889 392.790692 
L 457.938591 392.805879 
L 463.05191 392.916804 
L 463.724554 392.931223 
L 469.065142 393.042148 
L 469.733727 393.055797 
L 475.322868 393.166722 
L 475.98841 393.179795 
L 481.857565 393.29072 
L 482.519049 393.303023 
L 488.687496 393.413949 
L 489.345946 393.425675 
L 495.852236 393.536601 
L 496.506618 393.547559 
L 503.373071 393.658484 
L 504.02441 393.668865 
L 511.30075 393.77979 
L 511.94803 393.789402 
L 519.661639 393.900327 
L 520.305876 393.909363 
L 528.508486 394.020288 
L 529.149679 394.028746 
L 537.883921 394.139672 
L 538.52207 394.147554 
L 547.579952 394.258479 
L 548.217086 394.266168 
L 558.073416 394.377094 
L 558.706492 394.384014 
L 569.531712 394.494939 
L 570.161745 394.501283 
L 582.094859 394.612209 
L 582.720834 394.617784 
L 595.812559 394.728709 
L 596.436504 394.733899 
L 608.335114 394.827138 
L 608.335114 394.827138 
" style="fill:none;stroke:#7dff7a;stroke-linecap:square;stroke-width:1.5;"/>
   </g>
   <g id="patch_3">
    <path d="M 75.69875 415.717031 
L 75.69875 27.637031 
" style="fill:none;stroke:#000000;stroke-linecap:square;stroke-linejoin:miter;stroke-width:0.8;"/>
   </g>
   <g id="patch_4">
    <path d="M 633.69875 415.717031 
L 633.69875 27.637031 
" style="fill:none;stroke:#000000;stroke-linecap:square;stroke-linejoin:miter;stroke-width:0.8;"/>
   </g>
   <g id="patch_5">
    <path d="M 75.69875 415.717031 
L 633.69875 415.717031 
" style="fill:none;stroke:#000000;stroke-linecap:square;stroke-linejoin:miter;stroke-width:0.8;"/>
   </g>
   <g id="patch_6">
    <path d="M 75.69875 27.637031 
L 633.69875 27.637031 
" style="fill:none;stroke:#000000;stroke-linecap:square;stroke-linejoin:miter;stroke-width:0.8;"/>
   </g>
   <g id="text_17">
    <!-- V -->
    <defs>
     <path d="M 28.609375 0 
L 0.78125 72.90625 
L 11.078125 72.90625 
L 34.1875 11.53125 
L 57.328125 72.90625 
L 67.578125 72.90625 
L 39.796875 0 
z
" id="DejaVuSans-86"/>
    </defs>
    <g transform="translate(348.200156 21.637031)scale(0.19 -0.19)">
     <use xlink:href="#DejaVuSans-86"/>
    </g>
   </g>
   <g id="legend_1">
    <g id="patch_7">
     <path d="M 564.937812 61.654219 
L 623.19875 61.654219 
Q 626.19875 61.654219 626.19875 58.654219 
L 626.19875 38.137031 
Q 626.19875 35.137031 623.19875 35.137031 
L 564.937812 35.137031 
Q 561.937812 35.137031 561.937812 38.137031 
L 561.937812 58.654219 
Q 561.937812 61.654219 564.937812 61.654219 
z
" style="fill:#ffffff;opacity:0.8;stroke:#cccccc;stroke-linejoin:miter;"/>
    </g>
    <g id="line2d_30">
     <path d="M 567.937812 47.284687 
L 597.937812 47.284687 
" style="fill:none;stroke:#7dff7a;stroke-linecap:square;stroke-width:1.5;"/>
    </g>
    <g id="line2d_31"/>
    <g id="text_18">
     <!-- V -->
     <g transform="translate(609.937812 52.534687)scale(0.15 -0.15)">
      <use xlink:href="#DejaVuSans-86"/>
     </g>
    </g>
   </g>
  </g>
 </g>
 <defs>
  <clipPath id="p669cd83674">
   <rect height="388.08" width="558" x="75.69875" y="27.637031"/>
  </clipPath>
 </defs>
</svg>
